<svg width="27" height="24" viewBox="0 0 27 24" fill="none" xmlns="http://www.w3.org/2000/svg">
<path d="M0 1.125C0 0.501562 0.505852 0 1.13462 0H3.28568C4.32575 0 5.24763 0.6 5.67784 1.5H25.1082C26.3516 1.5 27.2593 2.67188 26.9331 3.8625L24.9948 11.0016C24.5929 12.4734 23.2456 13.5 21.7091 13.5H8.07L8.32529 14.8359C8.42929 15.3656 8.89733 15.75 9.441 15.75H23.0706C23.6994 15.75 24.2053 16.2516 24.2053 16.875C24.2053 17.4984 23.6994 18 23.0706 18H9.441C7.80525 18 6.40116 16.8469 6.09859 15.2578L3.65916 2.55469C3.62606 2.37656 3.47005 2.25 3.28568 2.25H1.13462C0.505852 2.25 0 1.74844 0 1.125ZM6.05132 21.75C6.05132 21.4545 6.11001 21.1619 6.22405 20.889C6.33809 20.616 6.50524 20.3679 6.71596 20.159C6.92668 19.9501 7.17684 19.7843 7.45216 19.6713C7.72747 19.5582 8.02256 19.5 8.32056 19.5C8.61856 19.5 8.91364 19.5582 9.18896 19.6713C9.46428 19.7843 9.71444 19.9501 9.92516 20.159C10.1359 20.3679 10.303 20.616 10.4171 20.889C10.5311 21.1619 10.5898 21.4545 10.5898 21.75C10.5898 22.0455 10.5311 22.3381 10.4171 22.611C10.303 22.884 10.1359 23.1321 9.92516 23.341C9.71444 23.5499 9.46428 23.7157 9.18896 23.8287C8.91364 23.9418 8.61856 24 8.32056 24C8.02256 24 7.72747 23.9418 7.45216 23.8287C7.17684 23.7157 6.92668 23.5499 6.71596 23.341C6.50524 23.1321 6.33809 22.884 6.22405 22.611C6.11001 22.3381 6.05132 22.0455 6.05132 21.75ZM21.936 19.5C22.5379 19.5 23.1151 19.7371 23.5406 20.159C23.9662 20.581 24.2053 21.1533 24.2053 21.75C24.2053 22.3467 23.9662 22.919 23.5406 23.341C23.1151 23.7629 22.5379 24 21.936 24C21.3342 24 20.757 23.7629 20.3314 23.341C19.9059 22.919 19.6668 22.3467 19.6668 21.75C19.6668 21.1533 19.9059 20.581 20.3314 20.159C20.757 19.7371 21.3342 19.5 21.936 19.5Z" fill="#303030"/>
</svg>
