<svg width="264" height="47" viewBox="0 0 264 47" fill="none" xmlns="http://www.w3.org/2000/svg">
<path d="M13.8025 46.6087C11.1237 46.6087 8.78986 46.1014 6.80102 45.0867C4.85277 44.0719 3.3307 42.6108 2.23481 40.7031C1.17951 38.7548 0.651855 36.4616 0.651855 33.8233V13.732C0.651855 11.0532 1.17951 8.75992 2.23481 6.85226C3.3307 4.9446 4.85277 3.48341 6.80102 2.4687C8.78986 1.45398 11.1237 0.946628 13.8025 0.946628C16.4814 0.946628 18.7949 1.47428 20.7432 2.52958C22.6914 3.54429 24.1932 5.00548 25.2485 6.91314C26.3038 8.8208 26.8315 11.0938 26.8315 13.732H21.352C21.352 11.2155 20.6823 9.28757 19.3429 7.94815C18.044 6.56814 16.1973 5.87813 13.8025 5.87813C11.4078 5.87813 9.52045 6.54784 8.14044 7.88726C6.80102 9.22669 6.13131 11.1546 6.13131 13.6711V33.8233C6.13131 36.3398 6.80102 38.2881 8.14044 39.6681C9.52045 41.0075 11.4078 41.6772 13.8025 41.6772C16.1973 41.6772 18.044 41.0075 19.3429 39.6681C20.6823 38.2881 21.352 36.3398 21.352 33.8233H26.8315C26.8315 36.421 26.3038 38.694 25.2485 40.6422C24.1932 42.5499 22.6914 44.0314 20.7432 45.0867C18.7949 46.1014 16.4814 46.6087 13.8025 46.6087Z" fill="black"/>
<path d="M33.0177 45.9999V1.55546H58.5885V6.54785H38.4363V20.3074H56.4576V25.2389H38.4363V41.0075H58.5885V45.9999H33.0177Z" fill="black"/>
<path d="M77.0731 46.6087C74.1507 46.6087 71.6342 46.1217 69.5236 45.1475C67.4536 44.1734 65.8504 42.7731 64.7139 40.9466C63.5774 39.1201 62.9889 36.9487 62.9483 34.4322H68.4277C68.4277 36.6645 69.1786 38.4301 70.6804 39.729C72.2228 41.0278 74.3537 41.6772 77.0731 41.6772C79.6302 41.6772 81.619 41.0481 83.0396 39.7899C84.5008 38.5316 85.2314 36.7863 85.2314 34.5539C85.2314 32.768 84.7443 31.2054 83.7702 29.866C82.8367 28.5265 81.4769 27.593 79.691 27.0653L73.6637 25.178C70.6195 24.2444 68.2654 22.6818 66.6012 20.49C64.9777 18.2982 64.1659 15.7209 64.1659 12.7579C64.1659 10.3632 64.6936 8.29315 65.7489 6.54785C66.8448 4.76195 68.3668 3.38194 70.3151 2.40781C72.2633 1.3931 74.5566 0.885742 77.1949 0.885742C81.0914 0.885742 84.2167 1.98163 86.5708 4.17341C88.9249 6.32461 90.1223 9.20639 90.1629 12.8188H84.6834C84.6834 10.627 84.0137 8.92227 82.6743 7.70462C81.3755 6.44637 79.5287 5.81725 77.134 5.81725C74.7798 5.81725 72.9331 6.38549 71.5936 7.52197C70.2948 8.65845 69.6454 10.2414 69.6454 12.2708C69.6454 14.0973 70.1325 15.6803 71.1066 17.0197C72.0807 18.3591 73.481 19.3129 75.3075 19.8812L81.3958 21.8294C84.3587 22.763 86.652 24.3459 88.2755 26.5783C89.8991 28.8107 90.7108 31.4286 90.7108 34.4322C90.7108 36.8675 90.1426 38.9984 89.0061 40.8249C87.8696 42.6513 86.2664 44.0719 84.1964 45.0867C82.1669 46.1014 79.7925 46.6087 77.0731 46.6087Z" fill="black"/>
<path d="M96.5927 45.9999V41.0075H105.664V6.54785H96.5927V1.55546H120.337V6.54785H111.265V41.0075H120.337V45.9999H96.5927Z" fill="black"/>
<path d="M141.108 45.9999V1.55546H167.774V8.19168H148.596V19.7594H165.644V26.3348H148.596V39.3637H167.774V45.9999H141.108Z" fill="black"/>
<path d="M181.936 46.6087C178.486 46.6087 175.767 45.6955 173.778 43.869C171.789 42.0425 170.795 39.5869 170.795 36.5022C170.795 33.2145 171.891 30.6777 174.083 28.8918C176.274 27.1059 179.379 26.213 183.398 26.213H191.739V23.3515C191.739 21.728 191.211 20.4697 190.156 19.5768C189.1 18.6432 187.659 18.1765 185.833 18.1765C184.169 18.1765 182.789 18.5418 181.693 19.2724C180.597 20.0029 179.948 20.9974 179.745 22.2556H172.317C172.682 19.0897 174.103 16.5732 176.579 14.7061C179.055 12.8391 182.221 11.9055 186.076 11.9055C190.176 11.9055 193.403 12.9405 195.757 15.0106C198.151 17.04 199.349 19.8 199.349 23.2906V45.9999H191.982V40.1552H190.764L191.982 38.5113C191.982 40.9872 191.069 42.9558 189.242 44.417C187.416 45.8781 184.981 46.6087 181.936 46.6087ZM184.433 40.8857C186.584 40.8857 188.329 40.3378 189.669 39.2419C191.049 38.146 191.739 36.7254 191.739 34.9801V30.901H183.519C181.977 30.901 180.739 31.3474 179.805 32.2404C178.872 33.1333 178.405 34.3104 178.405 35.7716C178.405 37.3545 178.933 38.6128 179.988 39.5463C181.084 40.4393 182.565 40.8857 184.433 40.8857Z" fill="black"/>
<path d="M220.938 45.9999C217.732 45.9999 215.215 45.107 213.389 43.3211C211.603 41.5352 210.71 39.0796 210.71 35.9542V19.3941H201.639V12.5144H210.71V3.07752H218.381V12.5144H231.228V19.3941H218.381V35.9542C218.381 38.0648 219.416 39.1201 221.486 39.1201H230.619V45.9999H220.938Z" fill="black"/>
<path d="M247.642 46.5478C245.085 46.5478 242.853 46.142 240.945 45.3302C239.037 44.5184 237.536 43.4022 236.44 41.9816C235.385 40.5204 234.816 38.8157 234.735 36.8675H242.345C242.427 37.9228 242.934 38.7751 243.868 39.4246C244.842 40.074 246.1 40.3987 247.642 40.3987H250.321C252.188 40.3987 253.588 40.0334 254.522 39.3028C255.456 38.5722 255.922 37.5778 255.922 36.3195C255.922 35.1425 255.496 34.2292 254.644 33.5798C253.832 32.8898 252.553 32.4433 250.808 32.2404L246.668 31.6316C242.853 31.1039 240.052 30.0892 238.266 28.5874C236.48 27.0856 235.587 24.833 235.587 21.8294C235.587 18.7041 236.643 16.2891 238.753 14.5844C240.864 12.8391 243.969 11.9664 248.068 11.9664H250.382C254.116 11.9664 257.099 12.7985 259.332 14.4626C261.564 16.1267 262.761 18.3591 262.924 21.1597H255.313C255.192 20.2668 254.684 19.5362 253.791 18.9679C252.939 18.3997 251.803 18.1156 250.382 18.1156H248.068C246.323 18.1156 245.045 18.4403 244.233 19.0897C243.462 19.6985 243.076 20.6118 243.076 21.8294C243.076 22.9659 243.421 23.8183 244.111 24.3865C244.801 24.9142 245.917 25.2997 247.46 25.5433L251.782 26.1521C255.76 26.7203 258.682 27.7959 260.549 29.3789C262.457 30.9213 263.411 33.2145 263.411 36.2587C263.411 39.5057 262.295 42.0425 260.062 43.869C257.871 45.6549 254.623 46.5478 250.321 46.5478H247.642Z" fill="black"/>
</svg>
