<svg width="559" height="559" viewBox="0 0 559 559" fill="none" xmlns="http://www.w3.org/2000/svg">
<rect width="559" height="559" rx="100" fill="#06C167"/>
<path d="M137.88 263.18C129.96 263.18 123.06 261.68 117.18 258.68C111.42 255.68 106.92 251.36 103.68 245.72C100.56 239.96 99 233.18 99 225.38V165.98C99 158.06 100.56 151.28 103.68 145.64C106.92 140 111.42 135.68 117.18 132.68C123.06 129.68 129.96 128.18 137.88 128.18C145.8 128.18 152.64 129.74 158.4 132.86C164.16 135.86 168.6 140.18 171.72 145.82C174.84 151.46 176.4 158.18 176.4 165.98H160.2C160.2 158.54 158.22 152.84 154.26 148.88C150.42 144.8 144.96 142.76 137.88 142.76C130.8 142.76 125.22 144.74 121.14 148.7C117.18 152.66 115.2 158.36 115.2 165.8V225.38C115.2 232.82 117.18 238.58 121.14 242.66C125.22 246.62 130.8 248.6 137.88 248.6C144.96 248.6 150.42 246.62 154.26 242.66C158.22 238.58 160.2 232.82 160.2 225.38H176.4C176.4 233.06 174.84 239.78 171.72 245.54C168.6 251.18 164.16 255.56 158.4 258.68C152.64 261.68 145.8 263.18 137.88 263.18Z" fill="black"/>
<path d="M194.69 261.38V129.98H270.29V144.74H210.71V185.42H263.99V200H210.71V246.62H270.29V261.38H194.69Z" fill="black"/>
<path d="M324.939 263.18C316.299 263.18 308.859 261.74 302.619 258.86C296.499 255.98 291.759 251.84 288.399 246.44C285.039 241.04 283.299 234.62 283.179 227.18H299.379C299.379 233.78 301.599 239 306.039 242.84C310.599 246.68 316.899 248.6 324.939 248.6C332.499 248.6 338.379 246.74 342.579 243.02C346.899 239.3 349.059 234.14 349.059 227.54C349.059 222.26 347.619 217.64 344.739 213.68C341.979 209.72 337.959 206.96 332.679 205.4L314.859 199.82C305.859 197.06 298.899 192.44 293.979 185.96C289.179 179.48 286.779 171.86 286.779 163.1C286.779 156.02 288.339 149.9 291.459 144.74C294.699 139.46 299.199 135.38 304.959 132.5C310.719 129.5 317.499 128 325.299 128C336.819 128 346.059 131.24 353.019 137.72C359.979 144.08 363.519 152.6 363.639 163.28H347.439C347.439 156.8 345.459 151.76 341.499 148.16C337.659 144.44 332.199 142.58 325.119 142.58C318.159 142.58 312.699 144.26 308.739 147.62C304.899 150.98 302.979 155.66 302.979 161.66C302.979 167.06 304.419 171.74 307.299 175.7C310.179 179.66 314.319 182.48 319.719 184.16L337.719 189.92C346.479 192.68 353.259 197.36 358.059 203.96C362.859 210.56 365.259 218.3 365.259 227.18C365.259 234.38 363.579 240.68 360.219 246.08C356.859 251.48 352.119 255.68 345.999 258.68C339.999 261.68 332.979 263.18 324.939 263.18Z" fill="black"/>
<path d="M382.649 261.38V246.62H409.469V144.74H382.649V129.98H452.849V144.74H426.029V246.62H452.849V261.38H382.649Z" fill="black"/>
<path d="M99 430.58V299.18H177.84V318.8H121.14V353H171.54V372.44H121.14V410.96H177.84V430.58H99Z" fill="black"/>
<path d="M219.71 432.38C209.51 432.38 201.47 429.68 195.59 424.28C189.71 418.88 186.77 411.62 186.77 402.5C186.77 392.78 190.01 385.28 196.49 380C202.97 374.72 212.15 372.08 224.03 372.08H248.69V363.62C248.69 358.82 247.13 355.1 244.01 352.46C240.89 349.7 236.63 348.32 231.23 348.32C226.31 348.32 222.23 349.4 218.99 351.56C215.75 353.72 213.83 356.66 213.23 360.38H191.27C192.35 351.02 196.55 343.58 203.87 338.06C211.19 332.54 220.55 329.78 231.95 329.78C244.07 329.78 253.61 332.84 260.57 338.96C267.65 344.96 271.19 353.12 271.19 363.44V430.58H249.41V413.3H245.81L249.41 408.44C249.41 415.76 246.71 421.58 241.31 425.9C235.91 430.22 228.71 432.38 219.71 432.38ZM227.09 415.46C233.45 415.46 238.61 413.84 242.57 410.6C246.65 407.36 248.69 403.16 248.69 398V385.94H224.39C219.83 385.94 216.17 387.26 213.41 389.9C210.65 392.54 209.27 396.02 209.27 400.34C209.27 405.02 210.83 408.74 213.95 411.5C217.19 414.14 221.57 415.46 227.09 415.46Z" fill="black"/>
<path d="M335.019 430.58C325.539 430.58 318.099 427.94 312.699 422.66C307.419 417.38 304.779 410.12 304.779 400.88V351.92H277.959V331.58H304.779V303.68H327.459V331.58H365.439V351.92H327.459V400.88C327.459 407.12 330.519 410.24 336.639 410.24H363.639V430.58H335.019Z" fill="black"/>
<path d="M413.969 432.2C406.409 432.2 399.809 431 394.169 428.6C388.529 426.2 384.089 422.9 380.849 418.7C377.729 414.38 376.049 409.34 375.809 403.58H398.309C398.549 406.7 400.049 409.22 402.809 411.14C405.689 413.06 409.409 414.02 413.969 414.02H421.889C427.409 414.02 431.549 412.94 434.309 410.78C437.069 408.62 438.449 405.68 438.449 401.96C438.449 398.48 437.189 395.78 434.669 393.86C432.269 391.82 428.489 390.5 423.329 389.9L411.089 388.1C399.809 386.54 391.529 383.54 386.249 379.1C380.969 374.66 378.329 368 378.329 359.12C378.329 349.88 381.449 342.74 387.689 337.7C393.929 332.54 403.109 329.96 415.229 329.96H422.069C433.109 329.96 441.929 332.42 448.529 337.34C455.129 342.26 458.669 348.86 459.149 357.14H436.649C436.289 354.5 434.789 352.34 432.149 350.66C429.629 348.98 426.269 348.14 422.069 348.14H415.229C410.069 348.14 406.289 349.1 403.889 351.02C401.609 352.82 400.469 355.52 400.469 359.12C400.469 362.48 401.489 365 403.529 366.68C405.569 368.24 408.869 369.38 413.429 370.1L426.209 371.9C437.969 373.58 446.609 376.76 452.129 381.44C457.769 386 460.589 392.78 460.589 401.78C460.589 411.38 457.289 418.88 450.689 424.28C444.209 429.56 434.609 432.2 421.889 432.2H413.969Z" fill="black"/>
</svg>
